<svg id="Layer_1" data-name="Layer 1" xmlns="http://www.w3.org/2000/svg" viewBox="0 0 182 182"><defs><style>.cls-1{fill:#1f5182;}</style></defs><title>logo-icon</title><path class="cls-1" d="M22.6,85c2.6,1.6,8.2,3.3,15.9,3.3h0a43.2,43.2,0,0,0,10.4-1.2,0.8,0.8,0,0,0,.6-0.7,45.2,45.2,0,0,1,4.8-16.8,0.8,0.8,0,0,0-.4-1.1A55.3,55.3,0,0,1,44.8,63,49.6,49.6,0,0,1,33.9,52.4a0.8,0.8,0,0,0-1.5.3,133.9,133.9,0,0,1-4.1,15.7,134.6,134.6,0,0,1-6,15.4,0.8,0.8,0,0,0,.3,1.1h0Z"/><path class="cls-1" d="M55.9,114.2a0.8,0.8,0,0,0,.1-1,44.7,44.7,0,0,1-5.3-12.9c-0.3-1.1-.5-2.3-0.7-3.5a0.8,0.8,0,0,0-.3-0.6H48.9a54.9,54.9,0,0,1-10.5,1A49.5,49.5,0,0,1,23.4,95a0.8,0.8,0,0,0-1,1.1,134.1,134.1,0,0,1,5.9,15.1,134.1,134.1,0,0,1,4.2,16,0.8,0.8,0,0,0,.8.7h0.1c3.1-.3,8.6-2.1,14.8-6.7a43.5,43.5,0,0,0,7.7-7.1h0Z"/><path class="cls-1" d="M101.3,23.4a2,2,0,0,0-1.4-1.1L60.1,14.1a2,2,0,0,0-2,3.1l6,8.1c-3.3,2.9-6.9,5.8-10.7,8.6a134.7,134.7,0,0,1-13.9,8.9,0.8,0.8,0,0,0-.4,1.1c1.2,2.8,4.7,7.5,10.9,12A43.3,43.3,0,0,0,59.2,61h0.3a0.8,0.8,0,0,0,.6-0.3A44.6,44.6,0,0,1,74.9,49.5l2,10.1a2,2,0,0,0,1.6,1.6h0.3a2,2,0,0,0,1.7-1l20.7-35a2,2,0,0,0,.1-1.8h0Z"/><path class="cls-1" d="M77.2,131.3a45.5,45.5,0,0,1-14.7-9.8l-0.6-.2-0.6.3a55.5,55.5,0,0,1-7.9,7,49.5,49.5,0,0,1-13.4,7.1,0.8,0.8,0,0,0-.1,1.5,134.7,134.7,0,0,1,13.7,8.8,133.9,133.9,0,0,1,13,10.7l0.6,0.2,0.5-.2c2.4-2.1,5.7-6.9,8.1-14.2a43.3,43.3,0,0,0,2.1-10.3,0.8,0.8,0,0,0-.5-0.8h0Z"/><path class="cls-1" d="M166.1,94.5c-2.6-1.6-8.2-3.3-15.9-3.3a43.3,43.3,0,0,0-10.4,1.2,0.8,0.8,0,0,0-.6.7,45.2,45.2,0,0,1-4.8,16.8,0.8,0.8,0,0,0,.4,1.1,55.1,55.1,0,0,1,9.1,5.4,49.6,49.6,0,0,1,10.9,10.6,0.8,0.8,0,0,0,.7.3h0.2a0.8,0.8,0,0,0,.6-0.7,139.5,139.5,0,0,1,10.1-31.1,0.8,0.8,0,0,0-.3-1.1h0Z"/><path class="cls-1" d="M132.8,65.3a0.8,0.8,0,0,0-.1,1,44.7,44.7,0,0,1,5.3,12.9c0.3,1.1.5,2.3,0.7,3.5a0.8,0.8,0,0,0,.3.6h0.6a54.8,54.8,0,0,1,10.5-1,49.5,49.5,0,0,1,15.1,2.2h0.3a0.8,0.8,0,0,0,.7-1.3,134.2,134.2,0,0,1-5.8-15,135,135,0,0,1-4.2-16,0.8,0.8,0,0,0-.9-0.7c-3.1.3-8.5,2.1-14.8,6.7a43.4,43.4,0,0,0-7.7,7.1h0Z"/><path class="cls-1" d="M111.5,48.5a45.5,45.5,0,0,1,14.7,9.8l0.6,0.2h0l0.6-.3a55.1,55.1,0,0,1,7.9-7,49.4,49.4,0,0,1,13.4-7.1,0.8,0.8,0,0,0,.1-1.5,134.2,134.2,0,0,1-13.7-8.8,134.2,134.2,0,0,1-13-10.7,0.8,0.8,0,0,0-1.1,0c-2.4,2.1-5.7,6.9-8.1,14.2A43.3,43.3,0,0,0,111,47.7a0.8,0.8,0,0,0,.5.8h0Z"/><path class="cls-1" d="M138.6,123.7a43.3,43.3,0,0,0-9.1-5.2,0.8,0.8,0,0,0-.9.2A44.6,44.6,0,0,1,113.8,130l-2-10.1a2,2,0,0,0-3.6-.6l-20.7,35a2,2,0,0,0,1.3,2.9l39.8,8.3H129a2,2,0,0,0,1.4-3.3l-5.8-8c3.3-2.9,6.9-5.8,10.7-8.6a134.5,134.5,0,0,1,13.9-8.9,0.8,0.8,0,0,0,.4-1.1c-1.2-2.8-4.7-7.5-10.9-12h0Z"/></svg>