<?xml version="1.0" encoding="UTF-8" standalone="no"?>
<!-- Generator: Adobe Illustrator 19.2.1, SVG Export Plug-In . SVG Version: 6.00 Build 0)  -->

<svg
   xmlns:dc="http://purl.org/dc/elements/1.1/"
   xmlns:cc="http://creativecommons.org/ns#"
   xmlns:rdf="http://www.w3.org/1999/02/22-rdf-syntax-ns#"
   xmlns:svg="http://www.w3.org/2000/svg"
   xmlns="http://www.w3.org/2000/svg"
   xmlns:sodipodi="http://sodipodi.sourceforge.net/DTD/sodipodi-0.dtd"
   xmlns:inkscape="http://www.inkscape.org/namespaces/inkscape"
   version="1.1"
   id="Laag_1"
   x="0px"
   y="0px"
   viewBox="0 0 50 50"
   style="enable-background:new 0 0 50 50;"
   xml:space="preserve"
   sodipodi:docname="logor.svg"
   inkscape:version="0.92.2 (5c3e80d, 2017-08-06)"><metadata
     id="metadata4975"><rdf:RDF><cc:Work
         rdf:about=""><dc:format>image/svg+xml</dc:format><dc:type
           rdf:resource="http://purl.org/dc/dcmitype/StillImage" /></cc:Work></rdf:RDF></metadata><defs
     id="defs4973" /><sodipodi:namedview
     pagecolor="#ffffff"
     bordercolor="#666666"
     borderopacity="1"
     objecttolerance="10"
     gridtolerance="10"
     guidetolerance="10"
     inkscape:pageopacity="0"
     inkscape:pageshadow="2"
     inkscape:window-width="1920"
     inkscape:window-height="1016"
     id="namedview4971"
     showgrid="false"
     inkscape:zoom="13.350176"
     inkscape:cx="25.093364"
     inkscape:cy="20.195371"
     inkscape:window-x="0"
     inkscape:window-y="27"
     inkscape:window-maximized="1"
     inkscape:current-layer="Laag_1" /><style
     type="text/css"
     id="style4956">
	.st0{fill:#655BA2;}
	.st1{fill:#FFFFFF;}
</style><circle
     class="st0"
     cx="25"
     cy="25"
     r="25"
     id="circle4958"
     style="fill:#ffffff;fill-opacity:0.96078432" /><g
     id="g4968"
     style="fill:#1a1a1a"><path
       class="st1"
       d="M10.7,13.3v23.5h29.1V13.3H10.7z M12.7,21.9h5.7v0.8h-5.7V21.9z M18.4,29.3h-5.7v-0.8h5.7V29.3z M20.9,26h-8.2   v-0.8h8.2V26z M38.8,36H28.3v-5.9c0.4-0.2,0.7-0.5,0.7-1c0-0.5-0.3-0.9-0.7-1v-4.6c0.4-0.2,0.7-0.5,0.7-1c0-0.5-0.3-0.9-0.7-1V19   c0.4-0.2,0.7-0.5,0.7-1c0-0.6-0.5-1.1-1.1-1.1c-0.6,0-1.1,0.5-1.1,1.1c0,0.5,0.3,0.8,0.7,1v2.5c-0.4,0.2-0.7,0.5-0.7,1   c0,0.5,0.3,0.8,0.7,1v4.6c-0.4,0.2-0.7,0.5-0.7,1c0,0.5,0.3,0.8,0.7,1V36h-2.3V16h-0.8V36h-2V14.7h16.4V36z"
       id="path4960"
       style="fill:#1a1a1a" /><rect
       x="30.1"
       y="17.1"
       class="st1"
       width="5.4"
       height="2.3"
       id="rect4962"
       style="fill:#1a1a1a" /><rect
       x="30"
       y="21.5"
       class="st1"
       width="5.4"
       height="2.3"
       id="rect4964"
       style="fill:#1a1a1a" /><rect
       x="30.1"
       y="28"
       class="st1"
       width="5.4"
       height="3.1"
       id="rect4966"
       style="fill:#1a1a1a" /></g></svg>