<?xml version="1.0" encoding="utf-8"?>
<!-- Generator: Adobe Illustrator 19.2.1, SVG Export Plug-In . SVG Version: 6.00 Build 0)  -->
<svg version="1.1" id="Laag_1" xmlns="http://www.w3.org/2000/svg" xmlns:xlink="http://www.w3.org/1999/xlink" x="0px" y="0px"
	 viewBox="0 0 50 50" style="enable-background:new 0 0 50 50;" xml:space="preserve">
<style type="text/css">
	.st0{fill:#655BA2;}
	.st1{fill:#FFFFFF;}
</style>
<circle class="st0" cx="25" cy="25" r="25"/>
<g>
	<path class="st1" d="M10.7,13.3v23.5h29.1V13.3H10.7z M12.7,21.9h5.7v0.8h-5.7V21.9z M18.4,29.3h-5.7v-0.8h5.7V29.3z M20.9,26h-8.2
		v-0.8h8.2V26z M38.8,36H28.3v-5.9c0.4-0.2,0.7-0.5,0.7-1c0-0.5-0.3-0.9-0.7-1v-4.6c0.4-0.2,0.7-0.5,0.7-1c0-0.5-0.3-0.9-0.7-1V19
		c0.4-0.2,0.7-0.5,0.7-1c0-0.6-0.5-1.1-1.1-1.1c-0.6,0-1.1,0.5-1.1,1.1c0,0.5,0.3,0.8,0.7,1v2.5c-0.4,0.2-0.7,0.5-0.7,1
		c0,0.5,0.3,0.8,0.7,1v4.6c-0.4,0.2-0.7,0.5-0.7,1c0,0.5,0.3,0.8,0.7,1V36h-2.3V16h-0.8V36h-2V14.7h16.4V36z"/>
	<rect x="30.1" y="17.1" class="st1" width="5.4" height="2.3"/>
	<rect x="30" y="21.5" class="st1" width="5.4" height="2.3"/>
	<rect x="30.1" y="28" class="st1" width="5.4" height="3.1"/>
</g>
</svg>
